<?xml version="1.0" encoding="UTF-8"?>
<svg id="Layer_2" data-name="Layer 2" xmlns="http://www.w3.org/2000/svg" viewBox="0 0 1330.9 215.56">
  <defs>
    <style>
      .cls-1 {
        fill: #1e8ff9;
      }

      .cls-2 {
        fill: #0f1726;
      }
    </style>
  </defs>
  <g id="Layer_1-2" data-name="Layer 1">
    <g>
      <g>
        <path class="cls-2" d="M335.27,170.7h-47.24L254.56,28.76h35.59l17.16,80.5,4.87,31.14h2.33l6.57-31.14,23.73-80.5h47.24l23.51,80.5,6.57,31.14h2.33l4.87-31.14,17.16-80.5h34.74l-33.68,141.93h-47.24l-21.18-70.97-9.96-40.88h-2.33l-9.96,40.88-21.61,70.97Z"/>
        <path class="cls-2" d="M548.59,172.81c-11.72,0-22.1-1.98-31.14-5.93-9.04-3.95-16.03-10.03-20.97-18.22-4.95-8.19-7.41-18.5-7.41-30.93,0-11.3,2.47-21.08,7.41-29.34,4.94-8.26,11.83-14.65,20.65-19.17,8.82-4.52,19.1-6.78,30.82-6.78s21.71,1.98,30.4,5.93c8.69,3.96,15.43,9.78,20.23,17.48,4.8,7.7,7.2,17.05,7.2,28.07,0,1.84-.07,3.53-.21,5.08-.14,1.56-.35,3.25-.64,5.08h-95.33v-16.74h72.87l-7.2,10.38v-7.84c0-8.05-2.19-13.84-6.57-17.37-4.38-3.53-11.51-5.3-21.4-5.3-10.73,0-18.22,2.09-22.46,6.25-4.24,4.17-6.35,10.77-6.35,19.81v8.05c0,9.04,2.12,15.64,6.35,19.81,4.24,4.17,11.79,6.25,22.67,6.25,9.32,0,15.89-1.2,19.7-3.6,3.81-2.4,5.72-5.86,5.72-10.38v-2.12h31.78v2.33c0,7.63-2.33,14.4-6.99,20.34-4.66,5.93-11.19,10.56-19.6,13.88-8.4,3.32-18.25,4.98-29.55,4.98Z"/>
        <path class="cls-2" d="M651.12,170.7h-31.78V28.76h31.78v141.93Z"/>
        <path class="cls-2" d="M715.3,172.81c-11.02,0-20.34-2.26-27.96-6.78-7.63-4.52-13.42-10.91-17.37-19.17-3.96-8.26-5.93-17.97-5.93-29.13s1.94-21.08,5.83-29.34c3.88-8.26,9.53-14.65,16.95-19.17,7.41-4.52,16.34-6.78,26.8-6.78,12.57,0,22.24,2.83,29.02,8.47,6.78,5.65,11.02,12.92,12.71,21.82h5.93v23.94h-4.02c0-9.18-2.65-15.68-7.94-19.49-5.3-3.81-13.03-5.72-23.2-5.72-6.78,0-12.39.85-16.84,2.54-4.45,1.69-7.73,4.42-9.85,8.16-2.12,3.74-3.18,8.93-3.18,15.57s1.06,11.44,3.18,15.25c2.12,3.81,5.4,6.57,9.85,8.26,4.45,1.69,10.06,2.54,16.84,2.54s12.46-.85,17.05-2.54c4.59-1.7,8.08-4.41,10.49-8.16,2.4-3.74,3.6-8.65,3.6-14.72h4.02l2.12,22.88h-5.72c-1.98,10.45-6.5,18.32-13.56,23.62-7.06,5.3-16.67,7.94-28.81,7.94ZM789.02,170.7h-29.66v-31.35l-2.12-2.75V28.76h31.78v141.93Z"/>
        <path class="cls-2" d="M839.22,170.7h-31.78V28.76h31.78v141.93ZM875.87,170.7h-59.74v-28.6h59.74c9.74,0,17.55-1.17,23.41-3.5,5.86-2.33,10.17-6.57,12.92-12.71s4.13-14.86,4.13-26.16-1.38-20.19-4.13-26.27c-2.75-6.07-7.06-10.27-12.92-12.6-5.86-2.33-13.66-3.5-23.41-3.5h-59.74v-28.6h59.74c15.25,0,28.42,2.83,39.51,8.47,11.08,5.65,19.66,13.77,25.74,24.36,6.07,10.59,9.11,23.3,9.11,38.13s-3.04,27.54-9.11,38.13c-6.07,10.59-14.65,18.71-25.74,24.36-11.09,5.65-24.26,8.47-39.51,8.47Z"/>
        <path class="cls-2" d="M1020.34,172.81c-11.72,0-22.1-1.98-31.14-5.93-9.04-3.95-16.03-10.03-20.97-18.22-4.95-8.19-7.41-18.5-7.41-30.93,0-11.3,2.47-21.08,7.41-29.34,4.94-8.26,11.83-14.65,20.65-19.17,8.82-4.52,19.1-6.78,30.82-6.78s21.71,1.98,30.4,5.93c8.69,3.96,15.43,9.78,20.23,17.48,4.8,7.7,7.2,17.05,7.2,28.07,0,1.84-.07,3.53-.21,5.08-.14,1.56-.35,3.25-.64,5.08h-95.33v-16.74h72.87l-7.2,10.38v-7.84c0-8.05-2.19-13.84-6.57-17.37-4.38-3.53-11.51-5.3-21.4-5.3-10.73,0-18.22,2.09-22.46,6.25-4.24,4.17-6.35,10.77-6.35,19.81v8.05c0,9.04,2.12,15.64,6.35,19.81,4.24,4.17,11.79,6.25,22.67,6.25,9.32,0,15.89-1.2,19.7-3.6,3.81-2.4,5.72-5.86,5.72-10.38v-2.12h31.78v2.33c0,7.63-2.33,14.4-6.99,20.34-4.66,5.93-11.19,10.56-19.6,13.88-8.4,3.32-18.25,4.98-29.55,4.98Z"/>
        <path class="cls-2" d="M1144.69,172.81c-17.79,0-31.49-3.35-41.1-10.06-9.61-6.71-14.41-16.21-14.41-28.49v-.63h31.78v1.91c0,4.8,1.73,8.02,5.19,9.64,3.46,1.62,9.71,2.44,18.75,2.44,8.47,0,14.09-.74,16.84-2.22,2.75-1.48,4.13-3.78,4.13-6.88s-1.06-5.05-3.18-6.25c-2.12-1.2-6.29-2.22-12.5-3.07l-29.87-3.6c-10.59-1.13-18.75-4.09-24.47-8.9-5.72-4.8-8.58-11.72-8.58-20.76,0-6.21,1.83-11.83,5.51-16.84,3.67-5.01,9.35-9.04,17.05-12.08,7.7-3.04,17.62-4.55,29.76-4.55s21.43,1.45,29.55,4.34c8.12,2.9,14.3,7.24,18.54,13.03,4.24,5.79,6.36,13,6.36,21.61v.64h-31.78v-1.27c0-2.97-.6-5.4-1.8-7.31-1.2-1.91-3.53-3.35-6.99-4.34-3.46-.99-8.44-1.48-14.93-1.48-7.91,0-13.21.74-15.89,2.22-2.68,1.48-4.02,3.92-4.02,7.31,0,2.68,1.09,4.7,3.28,6.04,2.19,1.34,6.74,2.51,13.66,3.5l22.67,2.75c14.12,1.56,24.15,4.8,30.08,9.75,5.93,4.95,8.9,11.79,8.9,20.55,0,6.64-2.12,12.43-6.35,17.37-4.24,4.95-10.24,8.79-18.01,11.54-7.77,2.75-17.16,4.13-28.17,4.13Z"/>
        <path class="cls-2" d="M1241.92,170.7h-31.78V28.76h31.78v141.93ZM1330.26,170.7h-37.5l-26.48-38.34h-38.98v-28.39h38.77l27.12-39.4h37.71l-38.77,51.26,38.13,54.87Z"/>
      </g>
      <path class="cls-1" d="M42.88,0h111.43c23.68,0,42.88,19.2,42.88,42.88v128.53s0,44.14,0,44.14l-72.02-44.14H42.88C19.2,171.42,0,152.22,0,128.53V42.88C0,19.2,19.2,0,42.88,0Z"/>
    </g>
  </g>
</svg>