<?xml version="1.0" encoding="UTF-8"?>
<svg id="Layer_2" data-name="Layer 2" xmlns="http://www.w3.org/2000/svg" viewBox="0 0 937.21 669.01">
  <defs>
    <style>
      .cls-1 {
        fill: #f6663e;
      }
    </style>
  </defs>
  <g id="Layer_1-2" data-name="Layer 1">
    <path class="cls-1" d="M787.08,0H150.13C67.22,0,0,67.21,0,150.12v368.76c0,82.91,67.22,150.13,150.13,150.13h636.95c82.91,0,150.13-67.22,150.13-150.13V150.12C937.21,67.21,869.99,0,787.08,0ZM780.05,230.53l-180.95,138.23c-39.2,29.91-86.23,44.87-133.25,44.87s-93.98-14.96-133.19-44.87c-.11-.06-.17-.11-.28-.17l-175.45-136.42c-15.98-12.41-18.87-35.41-6.46-51.38,12.46-15.98,35.46-18.81,51.38-6.41l175.34,136.26c52.29,39.77,125.26,39.77,177.49-.06l180.95-138.23c16.04-12.3,39.04-9.18,51.27,6.85,12.3,16.09,9.24,39.03-6.85,51.33Z"/>
  </g>
</svg>