<?xml version="1.0" encoding="UTF-8"?>
<svg id="Layer_2" data-name="Layer 2" xmlns="http://www.w3.org/2000/svg" viewBox="0 0 863.19 571.64">
  <defs>
    <style>
      .cls-1 {
        fill: #5bc0eb;
      }
    </style>
  </defs>
  <g id="Layer_1-2" data-name="Layer 1">
    <path class="cls-1" d="M853.88,535.38v36.26H171.32c-92.87,0-169.69-73.96-171.3-166.81-.8-46.2,16.74-89.84,49.16-122.57,20.53-20.7,45.47-35.49,72.74-43.46,10.54-59.32,39.28-113.81,83.21-156.58C259.58,29.19,331.44,0,407.44,0c86.42,0,167.29,38.17,222.1,103.51,4.39-.26,8.79-.4,13.19-.4,121.56,0,220.46,98.9,220.46,220.46,0,21.44-3.05,42.47-9.08,62.76h-109.14s7.58-18.97,7.58-18.97c5.56-13.9,8.37-28.64,8.37-43.79,0-65.16-53.01-118.18-118.18-118.18-8.53,0-17.02.9-25.24,2.69l-34.15,7.44-19.33-29.12c-34.95-52.67-93.49-84.11-156.58-84.11-102.33,0-184.76,80.07-187.66,182.3l-1.4,49.22-48.24.46c-35.2.33-65,27.21-67.65,62.31-3,39.61,28.37,72.79,67.36,72.79h618.03c36.46,0,66.02,29.56,66.02,66.02Z"/>
  </g>
</svg>