<?xml version="1.0" encoding="UTF-8"?>
<svg id="Layer_2" data-name="Layer 2" xmlns="http://www.w3.org/2000/svg" viewBox="0 0 1060.45 974.2">
  <defs>
    <style>
      .cls-1 {
        fill: #f4af3c;
      }

      .cls-2 {
        fill: #f8c157;
      }
    </style>
  </defs>
  <g id="Layer_1-2" data-name="Layer 1">
    <g>
      <path class="cls-2" d="M801.99,229.27l-147.15,147.15-125.26-125.26-382.44,382.44L0,486.44,456.01,30.43c1.35-1.35,2.82-2.69,4.55-4.17l.55-.51c1.18-1.05,2.44-2.02,3.66-2.99,1.05-.84,1.77-1.43,2.53-2.02.8-.59,1.81-1.35,2.82-2.06,1.18-.8,2.32-1.56,3.45-2.27,1.22-.76,2.44-1.52,3.66-2.23,1.14-.67,2.27-1.3,3.41-1.94l2.44-1.31c1.81-.88,3.58-1.68,5.35-2.44.76-.34,1.51-.63,2.27-.97,2.15-.84,3.87-1.52,5.39-2.02l1.68-.55c1.94-.59,3.75-1.14,5.6-1.6l1.77-.46c1.85-.46,4.04-.93,6.31-1.31.17-.04,1.22-.21,1.6-.25,1.31-.21,2.65-.42,4.04-.59l1.64-.21c1.6-.17,3.28-.29,4.97-.38.42-.04.8-.08,1.14-.08,1.6-.08,3.2-.08,4.8-.08h1.81c1.26.04,2.65.08,4.04.17l1.89.13c1.31.08,2.61.21,3.91.34l1.64.21c1.6.17,3.28.42,4.92.72l1.85.38c1.31.25,2.61.5,3.92.84.67.17,1.43.34,2.19.55,1.01.25,2.1.55,3.24.88l2.1.63c1.35.42,2.65.88,4,1.35l1.73.63c1.39.55,2.9,1.18,4.46,1.85l1.98.93c.93.42,2.02.93,3.11,1.47.59.29,1.22.63,1.89,1.01,1.22.63,2.27,1.22,3.37,1.85l1.85,1.09c1.39.8,2.74,1.68,4.08,2.57l1.56,1.14c1.18.84,2.36,1.68,3.54,2.57l1.39,1.14c1.22.93,2.27,1.81,3.37,2.74l1.43,1.26c1.39,1.22,2.86,2.61,4.29,4.04l198.79,198.79Z"/>
      <path class="cls-1" d="M258.46,744.93l147.15-147.15,125.26,125.26,382.44-382.44,147.15,147.15-456.01,456.01c-1.35,1.35-2.82,2.69-4.55,4.17l-.55.51c-1.18,1.05-2.44,2.02-3.66,2.99-1.05.84-1.77,1.43-2.53,2.02-.8.59-1.81,1.35-2.82,2.06-1.18.8-2.32,1.56-3.45,2.27-1.22.76-2.44,1.52-3.66,2.23-1.14.67-2.27,1.3-3.41,1.94l-2.44,1.31c-1.81.88-3.58,1.68-5.35,2.44-.76.34-1.51.63-2.27.97-2.15.84-3.87,1.52-5.39,2.02l-1.68.55c-1.94.59-3.75,1.14-5.6,1.6l-1.77.46c-1.85.46-4.04.93-6.31,1.31-.17.04-1.22.21-1.6.25-1.31.21-2.65.42-4.04.59l-1.64.21c-1.6.17-3.28.29-4.97.38-.42.04-.8.08-1.14.08-1.6.08-3.2.08-4.8.08h-1.81c-1.26-.04-2.65-.08-4.04-.17l-1.89-.13c-1.31-.08-2.61-.21-3.91-.34l-1.64-.21c-1.6-.17-3.28-.42-4.92-.72l-1.85-.38c-1.31-.25-2.61-.5-3.92-.84-.67-.17-1.43-.34-2.19-.55-1.01-.25-2.1-.55-3.24-.88l-2.1-.63c-1.35-.42-2.65-.88-4-1.35l-1.73-.63c-1.39-.55-2.9-1.18-4.46-1.85l-1.98-.93c-.93-.42-2.02-.93-3.11-1.47-.59-.29-1.22-.63-1.89-1.01-1.22-.63-2.27-1.22-3.37-1.85l-1.85-1.09c-1.39-.8-2.74-1.68-4.08-2.57l-1.56-1.14c-1.18-.84-2.36-1.68-3.54-2.57l-1.39-1.14c-1.22-.93-2.27-1.81-3.37-2.74l-1.43-1.26c-1.39-1.22-2.86-2.61-4.29-4.04l-198.79-198.79Z"/>
    </g>
  </g>
</svg>