<?xml version="1.0" encoding="UTF-8"?>
<svg id="Layer_2" data-name="Layer 2" xmlns="http://www.w3.org/2000/svg" viewBox="0 0 621.7 821.31">
  <defs>
    <style>
      .cls-1 {
        fill: #e84c3d;
      }
    </style>
  </defs>
  <g id="Layer_1-2" data-name="Layer 1">
    <g>
      <path class="cls-1" d="M621.7,438.39v102.04c0,32.93-26.7,59.63-59.63,59.63h-180.03c-44.08,0-79.81,35.73-79.81,79.81v81.83c0,32.93-26.7,59.63-59.63,59.63H59.63c-32.93,0-59.63-26.7-59.63-59.63v-102.23c0-32.93,26.7-59.63,59.63-59.63h162.56c44.08,0,79.81-35.73,79.81-79.81v-81.64c0-32.93,26.7-59.63,59.63-59.63h200.45c32.93,0,59.63,26.7,59.63,59.63Z"/>
      <path class="cls-1" d="M621.7,59.63v102.04c0,32.93-26.7,59.63-59.63,59.63h-249.35c-44.08,0-79.81,35.73-79.81,79.81v81.83c0,32.93-26.7,59.63-59.63,59.63H59.63c-32.93,0-59.63-26.7-59.63-59.63v-102.23c0-32.93,26.7-59.63,59.63-59.63h93.25c44.08,0,79.81-35.73,79.81-79.81V59.63C232.69,26.7,259.38,0,292.31,0h269.77c32.93,0,59.63,26.7,59.63,59.63Z"/>
    </g>
  </g>
</svg>