<?xml version="1.0" encoding="UTF-8"?>
<svg id="Layer_2" data-name="Layer 2" xmlns="http://www.w3.org/2000/svg" viewBox="0 0 732.14 644.39">
  <defs>
    <style>
      .cls-1 {
        fill: #fe466c;
      }
    </style>
  </defs>
  <g id="Layer_1-2" data-name="Layer 1">
    <g>
      <path class="cls-1" d="M696.18,61.19H35.96c-19.9.08-35.96,16.14-35.96,36.04v511.13c0,19.9,16.06,35.96,35.96,36.04h660.22c19.82-.08,35.96-16.14,35.96-36.04V97.23c0-19.9-16.14-35.96-35.96-36.04ZM660.14,572.39H72V133.19h588.14v439.2Z"/>
      <path class="cls-1" d="M367.36,509.91c-19.38,0-36.59-3.5-51.63-10.51s-26.92-16.65-35.61-28.93c-8.69-12.28-13.21-26.38-13.56-42.29h62.27c.52,9.77,4.5,17.62,11.94,23.55,7.44,5.92,16.3,8.89,26.6,8.89,8.04,0,15.18-1.77,21.41-5.32,6.23-3.54,11.11-8.54,14.66-14.98,3.55-6.44,5.27-13.86,5.19-22.25.09-8.56-1.67-16.04-5.25-22.44-3.59-6.4-8.52-11.39-14.79-14.98-6.27-3.59-13.47-5.38-21.6-5.38-7.7-.09-14.98,1.6-21.86,5.06-6.88,3.46-12.09,8.17-15.63,14.14l-56.69-10.64,11.55-143.23h170.47v51.76h-117.67l-6.1,62.66h1.56c4.41-7.35,11.52-13.43,21.34-18.23,9.81-4.8,20.99-7.2,33.54-7.2,15.91,0,30.12,3.7,42.62,11.09,12.5,7.4,22.36,17.62,29.58,30.68,7.22,13.06,10.83,28.02,10.83,44.89,0,18.25-4.3,34.42-12.91,48.52-8.61,14.1-20.63,25.15-36.07,33.15-15.44,8-33.49,12-54.16,12Z"/>
      <g>
        <g>
          <path class="cls-1" d="M174.77,0c-16.84,0-30.48,13.71-30.48,30.55v30.48h61.03v-30.48c0-16.84-13.71-30.55-30.55-30.55Z"/>
          <path class="cls-1" d="M174.77,194.22c16.84,0,30.48-13.71,30.48-30.55v-30.48h-60.95v30.48c0,16.84,13.63,30.55,30.48,30.55Z"/>
        </g>
        <g>
          <path class="cls-1" d="M366.03,0c-16.77,0-30.4,13.71-30.4,30.55v30.48h60.95v-30.48c0-16.84-13.71-30.55-30.55-30.55Z"/>
          <path class="cls-1" d="M366.11,194.22c16.77,0,30.4-13.71,30.4-30.55v-30.48h-60.95v30.48c0,16.84,13.71,30.55,30.55,30.55Z"/>
        </g>
        <g>
          <path class="cls-1" d="M557.37,0c-16.84,0-30.48,13.71-30.48,30.55v30.48h60.95v-30.48c0-16.84-13.63-30.55-30.48-30.55Z"/>
          <path class="cls-1" d="M557.37,194.22c16.84,0,30.48-13.71,30.48-30.55v-30.48h-61.03v30.48c0,16.84,13.71,30.55,30.55,30.55Z"/>
        </g>
      </g>
    </g>
  </g>
</svg>