<?xml version="1.0" encoding="UTF-8"?>
<svg xmlns="http://www.w3.org/2000/svg" viewBox="0 0 1290 205.78">
  <defs>
    <style>
      .txt { fill: #ffffff; }
      .ico { fill: #25d366; stroke: #25d366; stroke-width: 2px; stroke-linecap: round; stroke-linejoin: round; }
    </style>
  </defs>
  <g transform="translate(0,0.89) scale(8.5)">
    <path class="ico" d="M13.832 16.568a1 1 0 0 0 1.213-.303l.355-.465A2 2 0 0 1 17 15h3a2 2 0 0 1 2 2v3a2 2 0 0 1-2 2A18 18 0 0 1 2 4a2 2 0 0 1 2-2h3a2 2 0 0 1 2 2v3a2 2 0 0 1-.8 1.6l-.468.351a1 1 0 0 0-.292 1.233 14 14 0 0 0 6.392 6.384"/>
  </g>
  <g>
    <path class="txt" d="M360.29,176.5h-50.15l-35.53-150.68h37.78l18.22,85.46,5.17,33.06h2.47l6.97-33.06,25.19-85.46h50.15l24.96,85.46,6.97,33.06h2.47l5.17-33.06,18.22-85.46h36.88l-35.76,150.68h-50.15l-22.49-75.34-10.57-43.41h-2.47l-10.57,43.41-22.94,75.34Z"/>
    <path class="txt" d="M586.75,178.75c-12.45,0-23.47-2.1-33.06-6.3-9.6-4.2-17.02-10.64-22.27-19.34-5.25-8.69-7.87-19.64-7.87-32.83,0-11.99,2.62-22.38,7.87-31.15,5.25-8.77,12.56-15.55,21.93-20.35,9.37-4.8,20.28-7.2,32.72-7.2s23.05,2.1,32.27,6.3c9.22,4.2,16.38,10.38,21.48,18.55,5.1,8.17,7.65,18.1,7.65,29.8,0,1.95-.08,3.75-.22,5.4-.15,1.65-.38,3.45-.67,5.4h-101.2v-17.77h77.36l-7.65,11.02v-8.32c0-8.55-2.33-14.69-6.97-18.44-4.65-3.75-12.22-5.62-22.71-5.62-11.4,0-19.34,2.21-23.84,6.63-4.5,4.42-6.75,11.43-6.75,21.03v8.55c0,9.6,2.25,16.61,6.75,21.03,4.5,4.42,12.52,6.63,24.06,6.63,9.9,0,16.87-1.27,20.92-3.82,4.05-2.55,6.07-6.22,6.07-11.02v-2.25h33.73v2.47c0,8.1-2.47,15.29-7.42,21.59-4.95,6.3-11.88,11.21-20.8,14.73-8.92,3.52-19.38,5.29-31.37,5.29Z"/>
    <path class="txt" d="M695.6,176.5h-33.73V25.82h33.73v150.68Z"/>
    <path class="txt" d="M763.74,178.75c-11.69,0-21.59-2.4-29.69-7.2-8.1-4.8-14.25-11.58-18.44-20.35-4.2-8.77-6.3-19.08-6.3-30.92s2.06-22.38,6.18-31.15c4.12-8.77,10.12-15.55,17.99-20.35,7.87-4.8,17.35-7.2,28.45-7.2,13.34,0,23.61,3,30.81,9,7.2,6,11.69,13.72,13.49,23.17h6.3v25.41h-4.27c0-9.74-2.81-16.64-8.43-20.69-5.62-4.05-13.83-6.07-24.63-6.07-7.2,0-13.16.9-17.88,2.7-4.72,1.8-8.21,4.69-10.46,8.66-2.25,3.97-3.37,9.48-3.37,16.53s1.12,12.14,3.37,16.19c2.25,4.05,5.73,6.97,10.46,8.77,4.72,1.8,10.68,2.7,17.88,2.7s13.23-.9,18.1-2.7c4.87-1.8,8.58-4.68,11.13-8.66,2.55-3.97,3.82-9.18,3.82-15.63h4.27l2.25,24.29h-6.07c-2.1,11.1-6.9,19.45-14.39,25.08-7.5,5.62-17.69,8.43-30.59,8.43ZM842.01,176.5h-31.49v-33.29l-2.25-2.92V25.82h33.73v150.68Z"/>
    <path class="txt" d="M936.91,178.75c-16.5,0-30.78-3.18-42.84-9.56-12.07-6.37-21.37-15.37-27.89-26.99-6.52-11.62-9.78-25.3-9.78-41.04s3.26-29.42,9.78-41.04c6.52-11.62,15.82-20.61,27.89-26.99,12.07-6.37,26.35-9.56,42.84-9.56s29.35,2.47,40.82,7.42c11.47,4.95,20.35,12,26.65,21.14,6.3,9.15,9.45,20.17,9.45,33.06v3.37h-37.56v-3.37c0-9.9-3.04-17.24-9.11-22.04-6.07-4.8-15.93-7.2-29.57-7.2-10.95,0-19.76,1.46-26.43,4.39-6.67,2.92-11.51,7.65-14.51,14.17-3,6.52-4.5,15.41-4.5,26.65s1.5,19.94,4.5,26.54c3,6.6,7.83,11.36,14.51,14.28,6.67,2.92,15.48,4.39,26.43,4.39,13.64,0,23.5-2.4,29.57-7.2,6.07-4.8,9.11-12.14,9.11-22.04v-3.37h37.56v3.37c0,12.75-3.15,23.73-9.45,32.95-6.3,9.22-15.18,16.31-26.65,21.25-11.47,4.95-25.08,7.42-40.82,7.42Z"/>
    <g transform="translate(-89,1.05)">
      <path class="txt" d="M1173.39,176.65c-12.48,0-22.26-2.77-29.34-8.32-7.09-5.55-10.63-13.09-10.63-22.64,0-5.85,1.39-10.86,4.16-15.02,2.77-4.16,6.93-7.51,12.48-10.05,5.54-2.54,12.48-4.27,20.79-5.2l51.99-5.31v19.87l-42.51,4.85c-4.16.31-7.2,1.12-9.13,2.43-1.93,1.31-2.89,3.35-2.89,6.12,0,3.08,1.23,5.31,3.7,6.7,2.46,1.39,6.24,2.08,11.32,2.08,8.32,0,15.17-.77,20.56-2.31,5.39-1.54,9.51-4.04,12.36-7.51,2.85-3.47,4.27-8.12,4.27-13.98l3.23-.23v19.64h-3.23c-2.62,8.93-7.9,15.98-15.83,21.14-7.94,5.16-18.37,7.74-31.31,7.74ZM1254.72,174.34h-32.35v-27.49l-1.85-.46v-40.43c0-7.54-1.89-12.63-5.66-15.25-3.78-2.62-10.28-3.93-19.52-3.93s-15.1,1.31-18.95,3.93c-3.85,2.62-5.78,7.24-5.78,13.86v.92h-34.89v-.69c0-9.55,2.54-17.98,7.62-25.3,5.08-7.31,12.28-13.01,21.6-17.1,9.32-4.08,20.29-6.12,32.92-6.12s23.6,2.08,32,6.24c8.39,4.16,14.63,9.97,18.71,17.44,4.08,7.47,6.12,16.29,6.12,26.46v67.93Z"/>
    </g>
    <path class="txt" transform="translate(523,0)" d="M695.6,176.5h-33.73V25.82h33.73v150.68Z"/>
    <path class="txt" transform="translate(573,0)" d="M695.6,176.5h-33.73V25.82h33.73v150.68Z"/>
  </g>
</svg>
