<?xml version="1.0" encoding="UTF-8"?>
<svg id="Layer_2" data-name="Layer 2" xmlns="http://www.w3.org/2000/svg" viewBox="0 0 1329.65 148.05">
  <defs>
    <style>
      .cls-1 {
        fill: #09cf84;
      }

      .cls-2 {
        fill: #fff;
      }
    </style>
  </defs>
  <g id="Layer_1-2" data-name="Layer 1">
    <g>
      <g>
        <path class="cls-2" d="M372.68,141.16h-45.37L295.17,4.85h34.18l16.48,77.31,4.68,29.91h2.24l6.31-29.91,22.79-77.31h45.37l22.58,77.31,6.31,29.91h2.24l4.68-29.91,16.48-77.31h33.36l-32.35,136.31h-45.37l-20.34-68.15-9.56-39.26h-2.24l-9.56,39.26-20.75,68.15Z"/>
        <path class="cls-2" d="M577.54,143.19c-11.26,0-21.23-1.9-29.91-5.7-8.68-3.79-15.4-9.63-20.14-17.5-4.75-7.86-7.12-17.77-7.12-29.7,0-10.85,2.37-20.24,7.12-28.18,4.75-7.93,11.36-14.07,19.84-18.41,8.47-4.34,18.34-6.51,29.6-6.51s20.85,1.9,29.19,5.7c8.34,3.8,14.82,9.39,19.43,16.78,4.61,7.39,6.92,16.38,6.92,26.96,0,1.76-.07,3.39-.2,4.88-.14,1.49-.34,3.12-.61,4.88h-91.55v-16.07h69.98l-6.92,9.97v-7.53c0-7.73-2.1-13.29-6.31-16.68-4.21-3.39-11.06-5.09-20.55-5.09-10.31,0-17.5,2-21.56,6-4.07,4-6.1,10.34-6.1,19.02v7.73c0,8.68,2.03,15.02,6.1,19.02,4.07,4,11.32,6,21.77,6,8.95,0,15.26-1.15,18.92-3.46,3.66-2.3,5.49-5.63,5.49-9.97v-2.03h30.52v2.24c0,7.32-2.24,13.83-6.71,19.53-4.48,5.7-10.75,10.14-18.82,13.33-8.07,3.18-17.53,4.78-28.38,4.78Z"/>
        <path class="cls-2" d="M676.01,141.16h-30.52V4.85h30.52v136.31Z"/>
        <path class="cls-2" d="M737.65,143.19c-10.58,0-19.53-2.17-26.85-6.51-7.32-4.34-12.89-10.48-16.68-18.41-3.8-7.93-5.7-17.26-5.7-27.97s1.86-20.24,5.59-28.18c3.73-7.93,9.15-14.07,16.28-18.41,7.12-4.34,15.7-6.51,25.74-6.51,12.07,0,21.36,2.71,27.87,8.14,6.51,5.43,10.58,12.41,12.21,20.95h5.7v22.99h-3.87c0-8.82-2.54-15.05-7.63-18.72-5.09-3.66-12.51-5.49-22.28-5.49-6.51,0-11.9.81-16.17,2.44-4.27,1.63-7.43,4.24-9.46,7.83-2.03,3.6-3.05,8.58-3.05,14.95s1.02,10.99,3.05,14.65c2.03,3.66,5.19,6.31,9.46,7.93,4.27,1.63,9.66,2.44,16.17,2.44s11.97-.81,16.38-2.44c4.41-1.63,7.76-4.24,10.07-7.83,2.3-3.59,3.46-8.31,3.46-14.14h3.87l2.03,21.97h-5.49c-1.9,10.04-6.24,17.6-13.02,22.68-6.78,5.09-16.01,7.63-27.67,7.63ZM808.45,141.16h-28.48v-30.11l-2.03-2.64V4.85h30.52v136.31Z"/>
        <path class="cls-2" d="M855.03,141.16h-30.52V4.85h41.3l31.94,67.14,12.82,31.94h2.24l12.41-31.94,30.92-67.14h41.5v136.31h-30.52v-69.17l1.02-21.36h-2.24l-7.93,21.36-28.48,61.03h-37.03l-28.48-61.03-7.93-21.36h-2.24l1.22,21.36v69.17Z"/>
        <path class="cls-2" d="M1067.83,143.19c-11.26,0-21.23-1.9-29.91-5.7-8.68-3.79-15.4-9.63-20.14-17.5-4.75-7.86-7.12-17.77-7.12-29.7,0-10.85,2.37-20.24,7.12-28.18,4.75-7.93,11.36-14.07,19.84-18.41,8.47-4.34,18.34-6.51,29.6-6.51s20.85,1.9,29.19,5.7c8.34,3.8,14.82,9.39,19.43,16.78,4.61,7.39,6.92,16.38,6.92,26.96,0,1.76-.07,3.39-.2,4.88-.14,1.49-.34,3.12-.61,4.88h-91.55v-16.07h69.98l-6.92,9.97v-7.53c0-7.73-2.1-13.29-6.31-16.68-4.21-3.39-11.06-5.09-20.55-5.09-10.31,0-17.5,2-21.56,6-4.07,4-6.1,10.34-6.1,19.02v7.73c0,8.68,2.03,15.02,6.1,19.02,4.07,4,11.32,6,21.77,6,8.95,0,15.26-1.15,18.92-3.46,3.66-2.3,5.49-5.63,5.49-9.97v-2.03h30.52v2.24c0,7.32-2.24,13.83-6.71,19.53-4.48,5.7-10.75,10.14-18.82,13.33-8.07,3.18-17.53,4.78-28.38,4.78Z"/>
        <path class="cls-2" d="M1189.89,143.19c-11.26,0-21.23-1.9-29.91-5.7-8.68-3.79-15.4-9.63-20.14-17.5-4.75-7.86-7.12-17.77-7.12-29.7,0-10.85,2.37-20.24,7.12-28.18,4.75-7.93,11.36-14.07,19.84-18.41,8.47-4.34,18.34-6.51,29.6-6.51s20.85,1.9,29.19,5.7c8.34,3.8,14.82,9.39,19.43,16.78,4.61,7.39,6.92,16.38,6.92,26.96,0,1.76-.07,3.39-.2,4.88-.14,1.49-.34,3.12-.61,4.88h-91.55v-16.07h69.98l-6.92,9.97v-7.53c0-7.73-2.1-13.29-6.31-16.68-4.21-3.39-11.06-5.09-20.55-5.09-10.31,0-17.5,2-21.56,6-4.07,4-6.1,10.34-6.1,19.02v7.73c0,8.68,2.03,15.02,6.1,19.02,4.07,4,11.32,6,21.77,6,8.95,0,15.26-1.15,18.92-3.46,3.66-2.3,5.49-5.63,5.49-9.97v-2.03h30.52v2.24c0,7.32-2.24,13.83-6.71,19.53-4.48,5.7-10.75,10.14-18.82,13.33-8.07,3.18-17.53,4.78-28.38,4.78Z"/>
        <path class="cls-2" d="M1329.65,64.46h-79.55v-25.23h79.55v25.23ZM1329.65,141.16h-25.23c-11.94,0-21.29-2.92-28.07-8.75-6.78-5.83-10.17-15.19-10.17-28.08V19.5h30.52v81.38c0,5.16,1.12,8.58,3.36,10.27,2.24,1.7,6,2.54,11.29,2.54h18.31v27.46Z"/>
      </g>
      <g>
        <path class="cls-1" d="M199.49,54.16l30.75-27.85c6.02-5.45,15.65-1.18,15.65,6.94v81.55c0,8.12-9.63,12.39-15.65,6.94l-30.75-27.85c-1.62-1.47-2.55-3.56-2.55-5.75v-28.22c0-2.19.93-4.28,2.55-5.75Z"/>
        <rect class="cls-1" width="181.76" height="148.05" rx="39.84" ry="39.84"/>
      </g>
    </g>
  </g>
</svg>